<?xml version="1.0" standalone="no"?>
<!DOCTYPE svg PUBLIC "-//W3C//DTD SVG 20010904//EN"
 "http://www.w3.org/TR/2001/REC-SVG-20010904/DTD/svg10.dtd">
<svg version="1.0" xmlns="http://www.w3.org/2000/svg"
 width="996.000000pt" height="989.000000pt" viewBox="0 0 996.000000 989.000000"
 preserveAspectRatio="xMidYMid meet">

<g transform="translate(0.000000,989.000000) scale(0.100000,-0.100000)"
fill="#000000" stroke="none">
<path d="M4910 9514 c-67 -6 -94 -14 -84 -24 13 -13 263 -50 367 -55 105 -5
186 -26 224 -59 27 -23 27 -25 8 -31 -11 -4 -42 -15 -69 -26 -40 -16 -47 -16
-42 -3 12 32 -19 28 -162 -24 -29 -11 -58 -24 -65 -31 -6 -6 -19 -11 -28 -11
-9 0 -20 -8 -23 -17 -6 -15 -8 -15 -17 -3 -8 12 -13 10 -30 -12 -11 -16 -27
-28 -34 -28 -15 0 -27 -38 -14 -46 6 -3 9 -13 8 -22 -1 -10 0 -21 1 -27 1 -5
2 -36 2 -67 1 -49 4 -57 21 -60 29 -4 34 -28 6 -28 -30 0 -17 -12 18 -16 15
-1 34 3 42 9 10 8 13 8 8 1 -12 -21 17 -35 39 -20 13 10 23 11 31 5 8 -7 22
-5 42 6 22 11 36 13 49 6 32 -17 127 -1 156 25 14 13 33 24 43 24 10 0 27 6
38 13 29 19 83 35 141 43 44 5 54 3 71 -15 17 -18 25 -20 46 -12 16 6 44 7 71
2 25 -4 48 -5 53 -1 24 22 70 19 128 -8 33 -16 83 -32 110 -36 45 -7 223 -71
235 -85 15 -17 72 -39 89 -34 12 3 21 1 21 -6 0 -6 7 -11 15 -11 9 0 29 -16
46 -35 18 -20 41 -35 53 -35 11 0 33 -11 48 -25 35 -32 40 -31 27 3 -17 45
-59 99 -98 126 -24 17 -46 45 -60 76 -12 28 -26 50 -29 50 -6 0 -54 39 -102
83 -8 7 -29 19 -47 26 -18 7 -38 20 -45 29 -10 12 -10 14 0 8 6 -4 12 -5 12
-2 0 3 -13 12 -30 21 -16 8 -33 27 -36 40 -3 14 -11 25 -17 25 -5 0 -39 14
-74 30 -34 17 -72 30 -83 30 -11 0 -34 9 -52 20 -18 11 -41 20 -50 20 -21 0
-33 19 -20 32 7 7 17 6 32 -2 18 -9 24 -9 30 0 6 9 29 11 86 6 86 -8 90 -9
244 -60 58 -19 168 -53 245 -76 122 -36 274 -98 396 -161 20 -11 42 -19 49
-19 6 0 44 -16 83 -35 63 -29 74 -40 90 -76 14 -33 16 -47 7 -68 -5 -14 -10
-37 -9 -51 1 -14 -2 -33 -6 -42 -5 -13 -3 -18 9 -18 19 0 22 -26 4 -32 -10 -4
-10 -10 -1 -29 7 -17 8 -31 1 -43 -5 -10 -7 -28 -4 -41 4 -17 0 -28 -15 -39
-16 -11 -20 -21 -15 -40 5 -21 3 -26 -11 -26 -16 -1 -16 -2 -2 -10 11 -6 15
-18 11 -35 -4 -21 0 -25 19 -26 13 0 18 -3 12 -6 -7 -2 -13 -11 -13 -19 0 -8
6 -14 13 -14 6 0 1 -9 -13 -19 l-24 -19 24 -22 25 -21 -42 5 -43 6 0 -39 0
-39 40 5 c24 4 40 2 40 -5 0 -12 -24 -22 -56 -22 -14 0 -22 -4 -19 -10 3 -5
22 -10 42 -10 21 0 46 -9 61 -21 l27 -22 -27 5 c-22 4 -28 1 -28 -13 0 -10 5
-21 10 -24 6 -4 8 -15 5 -25 -5 -14 -1 -16 21 -12 19 3 25 1 20 -7 -4 -6 -14
-11 -23 -11 -10 0 -13 -6 -9 -16 4 -10 -1 -22 -11 -29 -16 -12 -16 -14 0 -39
15 -22 15 -27 3 -32 -12 -5 -12 -14 -1 -60 11 -48 11 -53 -3 -42 -13 11 -14
10 -8 -10 6 -17 4 -23 -6 -21 -36 5 -41 -1 -20 -24 26 -27 27 -40 8 -56 -8 -6
-17 -32 -21 -57 -4 -29 -11 -44 -18 -41 -45 19 -47 19 -47 3 0 -9 5 -16 10
-16 6 0 10 -9 10 -20 0 -13 -5 -18 -15 -14 -8 4 -15 1 -15 -5 0 -6 5 -11 11
-11 5 0 7 -5 3 -11 -4 -8 -9 -8 -17 0 -18 18 -50 14 -43 -5 4 -9 1 -23 -5 -30
-9 -11 -6 -14 17 -15 16 -1 21 -3 12 -6 -18 -4 -34 -40 -24 -51 3 -3 -3 -15
-14 -27 -12 -13 -24 -35 -29 -51 -4 -18 -24 -40 -50 -58 -23 -15 -47 -39 -53
-51 -6 -13 -21 -28 -33 -33 -13 -6 -26 -23 -29 -40 -6 -25 -52 -104 -107 -184
-11 -15 -19 -31 -19 -36 0 -5 -13 -20 -28 -34 -35 -31 -49 -25 -108 42 -21 25
-43 48 -49 52 -5 4 -33 23 -61 44 -68 49 -174 105 -263 139 -40 15 -101 44
-135 64 -33 21 -88 48 -121 60 -33 13 -87 34 -120 48 -66 27 -195 53 -265 53
-60 0 -40 -16 35 -28 33 -5 74 -15 90 -21 17 -6 66 -22 110 -35 183 -56 332
-126 480 -226 104 -69 149 -104 292 -221 64 -52 113 -74 113 -51 0 4 13 21 28
38 16 17 37 42 48 56 10 14 64 78 119 143 55 65 133 159 174 209 41 50 77 93
81 96 3 3 35 41 70 85 36 44 110 134 165 200 113 136 101 121 160 200 25 33
90 114 145 180 56 66 126 151 158 190 31 38 82 98 114 133 32 35 58 72 58 82
0 19 -83 90 -228 194 -79 57 -266 176 -276 176 -2 0 -69 36 -150 80 -81 44
-149 80 -151 80 -2 0 -52 23 -111 51 -126 59 -128 60 -214 94 -36 15 -79 33
-97 41 -17 8 -38 14 -46 14 -9 0 -18 4 -21 8 -3 5 -45 21 -93 37 -48 15 -99
32 -113 37 -30 12 -102 32 -235 64 -55 13 -122 30 -150 38 -71 19 -155 35
-270 51 -55 7 -111 18 -125 23 -14 5 -102 12 -197 16 -95 4 -187 12 -205 17
-36 11 -266 19 -338 13z m2250 -678 c0 -3 -4 -8 -10 -11 -5 -3 -10 -1 -10 4 0
6 5 11 10 11 6 0 10 -2 10 -4z m0 -306 c0 -5 -4 -10 -10 -10 -5 0 -10 5 -10
10 0 6 5 10 10 10 6 0 10 -4 10 -10z m0 -56 c0 -8 -5 -12 -10 -9 -6 4 -8 11
-5 16 9 14 15 11 15 -7z m30 -63 c-5 -11 -7 -27 -4 -35 3 -9 2 -16 -4 -16 -16
0 -25 52 -10 61 22 14 29 10 18 -10z m20 -101 c0 -5 -7 -10 -15 -10 -7 0 -18
-8 -24 -17 -8 -14 -12 -15 -25 -4 -12 10 -14 17 -5 27 13 16 69 19 69 4z m-10
-65 c-10 -12 -10 -19 -2 -27 15 -15 15 -28 2 -28 -5 0 -10 7 -10 15 0 9 -9 15
-25 15 -37 0 -31 28 8 38 38 11 44 8 27 -13z"/>
<path d="M4442 9461 c-11 -7 -11 -9 0 -13 15 -6 148 9 156 17 9 9 -142 5 -156
-4z"/>
<path d="M4251 9429 c-48 -15 -33 -21 33 -13 37 5 53 10 44 15 -16 11 -33 10
-77 -2z"/>
<path d="M4080 9391 c-8 -5 -35 -12 -60 -16 -120 -19 -298 -75 -419 -132 -176
-82 -390 -189 -449 -225 -34 -21 -65 -38 -69 -38 -8 0 -227 -166 -284 -215
-25 -22 -69 -59 -97 -83 -70 -59 -141 -128 -188 -183 -90 -104 -125 -148 -149
-182 -13 -20 -34 -50 -46 -67 -13 -16 -19 -33 -14 -37 4 -5 10 -3 12 4 2 7 15
27 28 45 14 18 35 49 48 68 37 53 106 120 175 170 35 25 97 84 138 132 95 112
233 217 285 218 31 0 38 5 49 30 13 31 75 90 95 90 5 0 23 7 39 15 16 9 46 20
65 25 53 12 225 77 273 101 38 19 43 20 53 5 7 -9 17 -16 24 -16 9 0 17 -66
12 -107 -2 -18 20 -27 30 -12 5 8 9 26 9 41 0 21 8 31 36 44 57 27 188 13 209
-21 23 -40 60 -77 94 -96 20 -11 63 -36 95 -55 32 -19 61 -32 65 -29 3 3 -3
21 -13 39 -14 27 -15 37 -5 60 11 22 10 32 -3 54 -8 15 -18 41 -21 57 -4 17
-4 24 -1 18 7 -15 34 -17 34 -3 0 6 -5 10 -11 10 -5 0 -8 4 -4 9 3 5 1 13 -5
16 -6 4 -10 14 -9 23 4 44 -22 92 -50 92 -15 0 -33 48 -26 69 7 22 84 71 111
71 13 0 26 5 29 10 8 12 -64 13 -85 1z"/>
<path d="M4824 8997 c-8 -22 11 -46 26 -31 7 7 5 17 -4 30 -14 18 -15 18 -22
1z"/>
<path d="M4880 8991 c0 -5 9 -7 20 -4 11 3 20 7 20 9 0 2 -9 4 -20 4 -11 0
-20 -4 -20 -9z"/>
<path d="M4836 8942 c-3 -6 -1 -14 5 -17 15 -10 25 3 12 16 -7 7 -13 7 -17 1z"/>
<path d="M4966 8884 c-14 -20 -16 -28 -6 -34 20 -12 50 1 50 21 0 11 5 19 10
19 6 0 10 5 10 10 0 20 -46 9 -64 -16z"/>
<path d="M3945 8810 c-4 -6 -20 -8 -40 -4 -18 3 -35 1 -39 -4 -3 -6 -15 -8
-26 -5 -14 4 -20 0 -20 -10 0 -9 -12 -22 -27 -29 -17 -8 -31 -26 -37 -45 -7
-25 -14 -33 -32 -33 -17 0 -24 -6 -24 -19 0 -11 5 -23 10 -26 15 -9 12 -25 -5
-25 -22 0 -52 68 -60 138 -4 34 -11 62 -15 62 -5 0 -11 -26 -13 -57 -8 -89
-12 -106 -28 -112 -24 -8 -46 -34 -31 -39 6 -2 12 -8 12 -14 0 -6 7 -16 17
-23 14 -11 13 -13 -12 -19 -26 -7 -26 -8 -11 -25 16 -17 16 -19 0 -25 -16 -6
-16 -8 1 -26 10 -11 14 -24 9 -32 -5 -7 -9 -87 -10 -177 -1 -154 0 -163 15
-145 17 19 55 44 67 44 3 0 4 -9 1 -21 -3 -13 -1 -19 6 -16 7 2 11 13 10 24
-1 12 14 37 37 61 22 22 40 48 40 56 0 23 21 20 27 -4 6 -22 51 -50 80 -50 10
0 24 -9 31 -20 10 -17 9 -20 -13 -26 -14 -3 -22 -11 -19 -16 8 -12 182 -2 220
12 13 5 24 16 24 25 0 8 4 15 10 15 18 0 83 76 113 135 30 57 32 65 31 172 -1
90 -4 114 -17 128 -10 9 -17 20 -17 25 0 5 -16 14 -35 20 -19 6 -35 15 -35 19
0 9 -85 65 -121 80 -13 6 -34 18 -46 26 -14 11 -23 13 -28 5z m50 -75 c16 -5
38 -17 49 -27 11 -10 27 -18 36 -18 22 0 75 -56 61 -64 -6 -4 -15 -4 -21 -1
-5 3 -10 -1 -10 -9 0 -20 1 -20 -51 4 -24 11 -53 20 -64 20 -11 0 -33 7 -49
15 -33 17 -39 19 -31 6 19 -32 -58 -9 -86 25 -12 14 -9 20 15 39 30 24 84 28
151 10z m-175 -85 c0 -5 -2 -10 -4 -10 -3 0 -8 5 -11 10 -3 6 -1 10 4 10 6 0
11 -4 11 -10z m-32 -233 c-4 -30 -44 -35 -53 -7 -4 12 -1 27 5 35 18 21 52 1
48 -28z m138 37 c17 -5 22 -16 27 -60 3 -29 13 -64 21 -76 20 -29 20 -38 -1
-38 -10 0 -27 12 -39 27 -18 23 -24 25 -37 15 -19 -16 -51 -2 -67 28 -12 22
-13 70 -2 86 14 21 57 29 98 18z"/>
<path d="M5430 8656 c-16 -16 -22 -17 -34 -7 -13 11 -17 10 -22 -3 -3 -9 -1
-23 6 -31 16 -19 7 -19 -30 0 -29 15 -30 15 -30 -9 0 -17 -10 -31 -35 -46 -19
-12 -35 -26 -35 -31 0 -6 -7 -9 -16 -7 -10 2 -19 -3 -21 -9 -3 -7 1 -13 7 -13
10 0 10 -3 1 -14 -6 -8 -10 -20 -9 -27 2 -8 -3 -13 -10 -11 -7 1 -18 -9 -24
-23 -7 -15 -19 -25 -33 -25 -21 0 -21 -2 -11 -50 8 -41 7 -57 -6 -83 -44 -92
-43 -85 -19 -111 12 -12 40 -28 61 -35 22 -6 40 -16 40 -21 0 -6 11 -10 25
-10 18 0 28 -7 35 -26 8 -20 15 -25 31 -21 16 4 19 2 14 -13 -8 -25 13 -35 34
-16 22 20 41 21 41 2 0 -18 30 -30 44 -16 19 19 29 10 23 -24 -7 -42 -2 -47
30 -35 19 7 28 6 37 -5 13 -18 125 -37 255 -43 l94 -5 -6 31 c-5 23 -3 33 8
37 8 4 15 13 15 21 0 8 -4 11 -10 8 -5 -3 -10 -2 -10 3 0 6 6 12 14 15 9 4 16
-4 19 -22 6 -31 47 -47 67 -27 7 7 16 7 30 -2 17 -11 21 -10 26 5 10 33 30 68
36 63 3 -3 15 3 26 13 11 10 33 19 48 20 20 2 30 9 32 22 6 29 31 55 48 48 8
-3 26 3 41 12 25 17 26 18 8 31 -10 8 -19 22 -20 31 0 10 -4 24 -9 31 -4 7 -3
19 3 26 6 7 8 16 4 20 -4 3 3 13 15 22 22 15 30 44 12 44 -5 0 -10 11 -10 24
0 26 -28 42 -64 37 -14 -2 -17 2 -13 13 4 11 -3 21 -22 30 -15 8 -40 31 -55
51 -21 27 -34 35 -54 33 -35 -3 -52 8 -52 33 0 17 -4 19 -37 13 -31 -6 -35 -4
-30 10 7 16 -4 20 -50 16 -12 0 -40 8 -63 20 -46 24 -95 24 -95 0 0 -18 -20
-28 -60 -30 l-30 -2 35 -8 c62 -14 135 -37 156 -48 16 -8 20 -18 16 -42 -5
-38 -13 -43 -58 -34 -24 4 -38 13 -41 25 -6 23 -10 23 -30 3 -10 -10 -24 -13
-37 -9 -12 4 -32 6 -45 6 -14 -1 -35 9 -48 21 -17 16 -23 18 -23 7 0 -26 -20
-38 -46 -29 -18 7 -26 5 -32 -7 -9 -15 -23 -15 -78 2 -16 5 -23 2 -27 -14 -7
-28 -44 -28 -52 0 -4 12 -12 18 -21 15 -10 -4 -13 1 -10 17 2 14 10 22 22 22
10 0 24 11 31 26 24 50 160 99 276 99 62 0 82 9 56 26 -6 4 -60 7 -120 8 -96
1 -112 -1 -129 -18z m520 -196 c9 -9 26 -23 39 -30 l23 -12 -23 -12 c-13 -7
-27 -8 -30 -4 -3 5 -13 6 -22 2 -25 -9 -50 22 -52 67 l-2 40 26 -17 c14 -9 33
-24 41 -34z m-664 -24 c21 -16 16 -30 -9 -20 -16 6 -32 34 -19 34 5 0 17 -6
28 -14z m228 -102 c12 -5 15 -15 10 -43 -7 -47 19 -154 46 -188 29 -38 26 -57
-7 -49 -16 4 -54 10 -86 13 -31 3 -60 9 -63 14 -3 5 -12 9 -20 9 -8 0 -23 9
-34 20 -11 11 -26 20 -34 20 -17 0 -31 33 -17 38 14 5 14 29 0 34 -7 2 -2 18
13 40 18 30 29 37 55 38 22 0 44 10 65 30 34 30 45 34 72 24z m-269 -174 c3
-5 -1 -10 -9 -10 -8 0 -18 5 -21 10 -3 6 1 10 9 10 8 0 18 -4 21 -10z m485
-171 c0 -5 -4 -9 -10 -9 -5 0 -10 7 -10 16 0 8 5 12 10 9 6 -3 10 -10 10 -16z
m55 -31 c7 -18 11 -36 9 -40 -10 -15 -33 -8 -32 10 0 9 0 22 -2 27 -4 15 -1
35 5 35 3 0 12 -15 20 -32z m-45 -18 c0 -11 -7 -20 -15 -20 -15 0 -21 21 -8
33 12 13 23 7 23 -13z"/>
<path d="M5525 8580 c-3 -5 -1 -10 4 -10 6 0 11 5 11 10 0 6 -2 10 -4 10 -3 0
-8 -4 -11 -10z"/>
<path d="M5610 8574 c0 -8 5 -12 10 -9 6 3 10 10 10 16 0 5 -4 9 -10 9 -5 0
-10 -7 -10 -16z"/>
<path d="M5365 8540 c3 -5 12 -10 20 -10 8 0 17 5 20 10 4 6 -5 10 -20 10 -15
0 -24 -4 -20 -10z"/>
<path d="M6280 8370 c0 -5 7 -10 16 -10 8 0 12 5 9 10 -3 6 -10 10 -16 10 -5
0 -9 -4 -9 -10z"/>
<path d="M6310 8309 c0 -5 5 -7 10 -4 6 3 10 8 10 11 0 2 -4 4 -10 4 -5 0 -10
-5 -10 -11z"/>
<path d="M7958 8277 c-23 -18 -156 -166 -202 -223 -131 -164 -205 -253 -236
-284 -35 -34 -80 -89 -435 -525 -250 -308 -403 -483 -436 -500 -67 -35 -114
-16 -269 107 -175 139 -259 196 -391 263 -231 118 -384 168 -609 201 -90 13
-163 15 -335 12 -213 -5 -223 -6 -312 -36 -194 -66 -289 -138 -339 -260 -35
-85 -33 -156 8 -217 47 -71 145 -146 286 -218 155 -79 406 -167 401 -140 -4
21 2 33 18 33 9 0 14 3 11 6 -10 9 33 49 106 98 85 59 204 104 321 122 118 18
421 18 545 -1 308 -46 575 -156 877 -362 85 -57 174 -113 196 -124 58 -26 138
-25 195 3 45 23 148 129 272 283 36 44 73 89 82 100 9 11 94 115 188 230 94
116 181 221 193 235 22 24 52 61 105 129 15 19 45 55 67 79 22 25 46 54 54 66
8 12 40 50 71 86 90 104 175 221 193 268 36 91 17 152 -75 237 -55 51 -305
225 -324 225 -4 0 -15 6 -23 14 -9 7 -55 34 -102 59 -70 38 -89 44 -101 34z"/>
<path d="M7047 8173 c-15 -14 -6 -21 21 -18 15 2 30 4 35 4 4 1 7 6 7 11 0 11
-53 14 -63 3z"/>
<path d="M2256 8144 c-5 -14 -4 -15 9 -4 17 14 19 20 6 20 -5 0 -12 -7 -15
-16z"/>
<path d="M7025 8060 c3 -5 8 -10 11 -10 2 0 4 5 4 10 0 6 -5 10 -11 10 -5 0
-7 -4 -4 -10z"/>
<path d="M2191 8033 c-6 -16 -18 -43 -26 -60 -26 -57 -7 -36 25 27 17 33 26
60 21 60 -5 0 -14 -12 -20 -27z"/>
<path d="M3570 7971 c0 -17 2 -31 4 -31 8 0 13 51 5 56 -5 3 -9 -9 -9 -25z"/>
<path d="M5335 7971 c-6 -11 9 -23 19 -14 9 9 7 23 -3 23 -6 0 -12 -4 -16 -9z"/>
<path d="M5893 7925 c-9 -24 1 -27 15 -5 8 13 8 20 2 20 -6 0 -13 -7 -17 -15z"/>
<path d="M2126 7895 c-9 -22 -27 -65 -41 -95 -37 -85 -39 -113 -2 -40 51 103
69 149 64 163 -3 6 -12 -6 -21 -28z"/>
<path d="M7116 7901 c-4 -7 -5 -15 -2 -18 9 -9 19 4 14 18 -4 11 -6 11 -12 0z"/>
<path d="M2037 7677 c-4 -10 -7 -28 -6 -40 0 -21 1 -21 10 2 5 14 8 32 7 40
-3 13 -5 13 -11 -2z"/>
<path d="M2001 7554 c0 -11 3 -14 6 -6 3 7 2 16 -1 19 -3 4 -6 -2 -5 -13z"/>
<path d="M4373 7482 c-29 -2 -53 -7 -53 -12 0 -5 7 -7 15 -4 8 4 15 1 15 -5 0
-6 -6 -11 -13 -11 -17 0 -49 -34 -41 -43 3 -3 12 -3 20 0 10 4 12 0 8 -12 -5
-11 -10 -13 -17 -6 -15 15 -37 14 -37 -2 0 -21 35 -48 54 -41 9 3 16 1 16 -5
0 -13 48 -35 70 -32 12 2 13 0 3 -10 -26 -26 -12 -30 17 -6 16 14 39 28 50 32
11 3 20 11 20 16 0 14 -16 11 -30 -6 -17 -21 -30 -19 -65 11 -16 14 -22 23
-13 20 10 -3 31 0 48 6 l31 10 -33 24 c-17 13 -27 24 -21 24 15 0 28 40 16 49
-4 3 -32 5 -60 3z"/>
<path d="M5160 7484 c-8 -1 -51 -6 -95 -11 -77 -8 -75 -8 80 -13 88 -3 174 -3
190 1 26 4 23 6 -29 17 -56 11 -112 14 -146 6z"/>
<path d="M1956 7382 c-2 -4 -1 -14 5 -22 7 -12 9 -10 9 8 0 23 -5 28 -14 14z"/>
<path d="M3980 7129 c-6 -10 -16 -19 -22 -19 -6 0 -20 -7 -30 -17 -17 -15 -20
-15 -43 7 -13 13 -31 20 -39 17 -9 -4 -18 -2 -21 3 -10 17 -54 11 -75 -10 -11
-11 -26 -17 -35 -14 -24 10 -17 -12 15 -49 17 -19 30 -45 30 -57 0 -15 5 -20
14 -17 8 3 20 -1 26 -9 7 -8 18 -14 26 -14 7 0 19 -10 25 -22 7 -12 21 -30 32
-38 11 -10 17 -22 13 -28 -10 -17 -46 -15 -52 3 -4 8 -13 15 -21 15 -8 0 -22
8 -31 17 -16 16 -17 15 -20 -1 -11 -54 37 -99 108 -103 25 -1 48 -2 52 -2 4
-1 10 -10 13 -21 3 -11 15 -20 26 -20 25 0 25 -26 -1 -33 -25 -7 -26 -27 -1
-27 11 0 31 14 44 30 14 17 34 30 44 30 15 0 16 2 3 10 -12 8 -11 10 6 10 12
0 35 14 52 31 25 26 36 31 64 27 18 -3 40 -8 50 -12 15 -7 17 5 20 111 2 65 8
126 12 136 6 12 4 17 -8 17 -9 0 -16 -8 -16 -20 0 -25 -2 -25 -42 0 -18 11
-41 20 -50 20 -13 0 -18 8 -18 26 0 26 -1 26 -50 20 -28 -4 -50 -3 -50 2 0 20
-40 20 -50 1z m80 -134 c0 -17 -30 -73 -49 -89 -27 -25 -27 -19 5 43 23 43 44
65 44 46z m-72 -127 c-3 -7 -13 -15 -24 -17 -16 -3 -17 -1 -5 13 16 19 34 21
29 4z m-53 -28 c-3 -5 -13 -10 -21 -10 -8 0 -14 5 -14 10 0 6 9 10 21 10 11 0
17 -4 14 -10z"/>
<path d="M3075 7039 c-4 -6 -5 -13 -2 -16 7 -7 27 6 27 18 0 12 -17 12 -25 -2z"/>
<path d="M1900 6800 c0 -68 3 -81 19 -90 11 -5 22 -10 25 -10 13 0 5 28 -13
44 -14 13 -17 25 -12 49 8 40 3 87 -10 87 -5 0 -9 -36 -9 -80z"/>
<path d="M3066 6864 c-10 -25 1 -29 14 -5 6 12 7 21 1 21 -5 0 -12 -7 -15 -16z"/>
<path d="M1910 6659 c0 -20 16 -43 23 -32 3 4 -1 17 -9 28 -10 13 -14 15 -14
4z"/>
<path d="M3025 6650 c-10 -11 -16 -22 -13 -25 3 -3 13 4 23 15 10 11 16 22 13
25 -3 3 -13 -4 -23 -15z"/>
<path d="M3573 6380 c-18 -20 -33 -45 -33 -54 0 -60 75 -165 137 -191 27 -11
32 -19 36 -57 8 -66 4 -98 -14 -103 -11 -4 -14 -14 -11 -38 8 -56 64 -127 135
-170 15 -10 27 -26 27 -37 0 -34 97 -109 122 -94 6 4 16 0 22 -8 13 -17 76
-38 117 -38 15 0 40 -7 55 -15 46 -24 96 -19 142 14 32 24 53 31 99 33 57 3
58 3 55 31 -3 22 1 30 17 34 12 3 21 9 21 14 0 5 7 9 15 9 8 0 15 9 15 20 0
11 -7 20 -15 20 -8 0 -15 -9 -15 -19 0 -22 -21 -33 -40 -21 -15 10 -5 30 16
30 9 0 14 6 12 12 -3 8 -19 12 -39 10 -22 -1 -42 5 -56 17 l-23 19 27 31 c15
17 33 31 41 31 7 0 30 9 50 19 42 21 161 41 250 41 54 1 85 13 89 35 1 6 4 17
8 26 4 12 -5 23 -31 38 -20 12 -42 20 -49 17 -7 -2 -17 0 -23 6 -10 10 -20 12
-102 23 -45 6 -77 19 -220 89 -89 44 -114 58 -137 77 -10 8 -30 21 -45 29 -15
7 -36 21 -46 30 -10 10 -54 37 -96 60 -70 39 -86 43 -169 49 -64 5 -108 3
-146 -7 -40 -10 -56 -11 -61 -2 -4 6 -19 12 -33 14 -15 1 -30 6 -34 9 -14 15
-40 3 -70 -33z m477 -375 c0 -14 6 -25 13 -25 6 0 3 -7 -8 -16 -11 -8 -19 -20
-17 -26 4 -14 -21 -4 -26 10 -2 7 0 11 5 10 8 -3 13 5 13 23 0 5 -4 8 -9 4
-13 -8 -22 10 -15 29 10 27 44 20 44 -9z m-290 5 c0 -5 -2 -10 -4 -10 -3 0 -8
5 -11 10 -3 6 -1 10 4 10 6 0 11 -4 11 -10z m475 -9 c3 -6 17 -6 35 1 23 7 34
7 45 -2 42 -34 1 -61 -99 -64 -39 -2 -78 -6 -87 -10 -10 -4 -20 -3 -24 3 -3 6
-2 11 4 11 5 0 11 10 13 23 2 16 10 22 28 22 14 0 34 6 45 12 24 15 32 16 40
4z m-305 -41 c0 -5 -2 -10 -4 -10 -3 0 -8 5 -11 10 -3 6 -1 10 4 10 6 0 11 -4
11 -10z m50 -11 c0 -5 -4 -9 -10 -9 -5 0 -10 7 -10 16 0 8 5 12 10 9 6 -3 10
-10 10 -16z"/>
<path d="M5465 6163 c27 -14 80 -36 118 -49 37 -13 104 -38 150 -57 98 -40
142 -56 182 -66 17 -4 40 -13 53 -19 37 -20 60 -31 135 -68 40 -20 80 -40 89
-45 10 -5 25 -9 33 -9 8 0 15 -6 15 -14 0 -7 14 -16 30 -20 19 -3 34 -14 39
-28 12 -31 4 -40 -19 -26 -11 7 -22 9 -25 6 -12 -12 20 -47 45 -50 23 -3 20
-6 -24 -30 -27 -16 -63 -28 -80 -28 -33 -1 -66 -20 -66 -39 0 -6 12 -11 26
-11 14 0 23 -4 19 -10 -4 -6 -11 -7 -17 -4 -6 4 -16 0 -22 -8 -6 -8 -26 -23
-44 -33 -18 -11 -30 -25 -28 -31 5 -14 -25 -24 -76 -24 -20 0 -44 -7 -52 -15
-22 -23 -57 -105 -49 -118 4 -6 -4 -8 -21 -5 -22 5 -29 1 -37 -18 -7 -21 -11
-23 -27 -13 -16 10 -23 8 -41 -10 -23 -23 -67 -28 -74 -8 -2 6 -8 8 -13 4 -5
-4 -4 -11 2 -15 6 -4 14 -17 18 -29 6 -19 4 -23 -14 -23 -13 0 -24 -8 -27 -20
-5 -18 -11 -19 -59 -14 -46 6 -54 4 -54 -10 0 -9 -7 -16 -15 -16 -27 0 -75
-30 -75 -46 0 -8 -4 -13 -9 -9 -5 3 -12 1 -16 -5 -3 -5 -16 -10 -28 -10 -17 0
-19 -2 -7 -10 8 -5 11 -12 8 -16 -13 -12 -71 -14 -85 -3 -7 7 -16 9 -20 6 -3
-4 -15 -1 -26 5 -17 9 -24 7 -36 -9 -30 -36 -147 -69 -179 -49 -12 7 -57 -19
-82 -49 -7 -8 -20 -15 -30 -15 -10 0 -20 -6 -23 -14 -4 -10 -19 -14 -53 -11
-34 2 -52 -2 -66 -15 -11 -10 -28 -15 -43 -12 -17 3 -30 -2 -43 -18 -19 -23
-6 -22 -246 -21 -38 1 -73 6 -76 11 -4 6 -32 12 -63 13 -32 1 -57 5 -57 8 0 4
-16 10 -35 13 -19 4 -35 12 -35 18 0 6 -9 8 -20 5 -21 -5 -70 12 -70 26 0 4
-8 7 -18 7 -11 0 -27 9 -37 20 -10 11 -21 20 -25 20 -4 0 -10 -9 -13 -20 -4
-16 -14 -20 -47 -20 -25 0 -39 -4 -35 -10 17 -27 -22 -4 -71 42 -93 88 -143
212 -164 410 -27 256 -70 439 -141 595 -10 23 -19 47 -19 52 0 15 -23 14 -38
-1 -7 -7 -12 -20 -12 -29 0 -9 -7 -22 -15 -29 -8 -7 -15 -23 -15 -36 0 -13 -8
-32 -19 -43 -10 -10 -26 -33 -36 -52 -10 -19 -22 -41 -26 -49 -5 -8 -14 -26
-20 -40 -6 -14 -15 -33 -20 -42 -5 -10 -9 -24 -9 -31 0 -8 -8 -21 -17 -30 -19
-16 -30 -36 -82 -148 -34 -73 -37 -85 -18 -92 10 -4 10 -7 0 -18 -10 -10 -13
-10 -13 0 0 7 -5 9 -11 6 -6 -5 -4 -11 7 -19 13 -10 15 -20 10 -42 -17 -67
-152 -311 -226 -406 -23 -30 -46 -38 -36 -12 3 9 9 28 12 42 5 25 3 24 -29
-13 l-34 -39 -31 24 c-17 14 -51 40 -76 58 -154 109 -201 144 -314 235 -41 32
-70 52 -65 43 21 -38 207 -226 274 -278 313 -241 338 -256 633 -385 165 -72
248 -104 461 -180 114 -40 136 -48 260 -97 50 -19 110 -42 135 -49 403 -127
808 -262 890 -297 41 -18 118 -50 170 -71 175 -73 338 -186 404 -282 60 -87
78 -167 70 -313 -6 -109 -10 -128 -38 -183 -57 -114 -198 -255 -307 -308 -72
-35 -207 -75 -319 -95 -50 -9 -169 -13 -360 -13 -332 0 -375 6 -650 87 -58 17
-339 168 -435 233 -174 119 -382 282 -487 382 -44 42 -74 63 -87 61 -17 -3
-190 -203 -348 -403 -35 -44 -85 -105 -111 -136 -71 -86 -199 -242 -377 -463
-158 -196 -182 -226 -320 -402 -38 -49 -89 -111 -113 -138 -40 -46 -43 -53
-40 -100 l3 -50 155 -118 c179 -136 218 -164 473 -336 226 -153 407 -254 652
-367 101 -47 321 -121 479 -161 192 -48 211 -53 301 -68 85 -15 119 -20 295
-45 139 -20 363 -34 610 -39 286 -5 458 8 825 63 344 51 697 169 1040 345 134
69 143 74 267 149 333 202 605 459 863 816 98 135 224 400 278 585 49 167 57
195 57 209 0 9 6 45 15 81 8 36 19 117 24 180 6 63 15 142 21 175 12 62 7 187
-11 260 -5 22 -14 114 -19 205 -10 171 -22 259 -45 345 -7 28 -23 88 -36 135
-44 168 -82 268 -161 425 -80 161 -109 209 -202 339 -66 92 -271 330 -327 380
-72 64 -227 186 -237 186 -5 0 -15 7 -23 16 -20 25 -136 79 -317 150 -92 35
-176 69 -187 74 -33 15 -98 41 -125 50 -14 5 -50 18 -80 30 -73 29 -131 49
-280 99 -69 23 -161 54 -205 70 -150 53 -381 122 -403 121 -4 -1 15 -13 43
-27z m-2045 -397 c0 -3 -4 -8 -10 -11 -5 -3 -10 -1 -10 4 0 6 5 11 10 11 6 0
10 -2 10 -4z m-90 -170 c0 -3 -4 -8 -10 -11 -5 -3 -10 -1 -10 4 0 6 5 11 10
11 6 0 10 -2 10 -4z m70 -105 c0 -6 -4 -13 -10 -16 -5 -3 -10 1 -10 9 0 9 5
16 10 16 6 0 10 -4 10 -9z"/>
<path d="M2945 6090 c-3 -5 -2 -10 4 -10 5 0 13 5 16 10 3 6 2 10 -4 10 -5 0
-13 -4 -16 -10z"/>
<path d="M2031 6008 c-1 -15 5 -42 13 -60 8 -18 22 -53 32 -78 10 -25 29 -61
42 -80 14 -19 21 -26 17 -15 -5 11 -8 31 -8 45 1 13 -5 33 -13 44 -8 11 -14
35 -14 53 0 22 -6 36 -20 43 -11 6 -27 25 -34 43 l-14 32 -1 -27z"/>
<path d="M4816 5895 c-9 -25 -8 -27 22 -23 16 2 27 9 27 18 0 21 -41 25 -49 5z"/>
<path d="M2150 5728 c0 -4 5 -19 10 -34 8 -21 13 -25 22 -16 9 9 7 17 -10 34
-12 12 -22 19 -22 16z"/>
<path d="M6250 5710 c0 -5 7 -10 16 -10 8 0 12 5 9 10 -3 6 -10 10 -16 10 -5
0 -9 -4 -9 -10z"/>
<path d="M4495 5650 c-3 -5 -2 -10 4 -10 5 0 13 5 16 10 3 6 2 10 -4 10 -5 0
-13 -4 -16 -10z"/>
<path d="M3120 5305 c-7 -9 -11 -17 -9 -20 3 -2 10 5 17 15 14 24 10 26 -8 5z"/>
<path d="M5641 5264 c0 -11 3 -14 6 -6 3 7 2 16 -1 19 -3 4 -6 -2 -5 -13z"/>
<path d="M5447 5206 c-24 -18 -21 -24 8 -18 14 2 25 8 25 13 0 15 -15 17 -33
5z"/>
<path d="M5285 5120 c-3 -5 1 -10 10 -10 9 0 13 5 10 10 -3 6 -8 10 -10 10 -2
0 -7 -4 -10 -10z"/>
<path d="M7890 4793 c5 -10 37 -84 69 -164 115 -280 181 -524 201 -744 6 -66
16 -160 23 -210 17 -135 14 -446 -6 -610 -54 -423 -220 -830 -483 -1180 -341
-454 -908 -854 -1524 -1075 -281 -101 -469 -146 -820 -196 -148 -21 -880 -31
-1125 -15 -323 21 -795 126 -1132 252 -134 50 -428 192 -546 263 -56 34 -127
55 -127 37 0 -10 51 -79 78 -106 83 -81 476 -352 750 -516 114 -68 419 -221
477 -239 22 -7 45 -16 50 -21 10 -7 189 -69 300 -102 91 -28 248 -65 384 -92
73 -14 137 -27 140 -29 12 -8 165 -28 261 -34 219 -16 1139 -6 1191 12 8 3 50
10 94 16 365 49 704 155 1073 338 352 174 604 351 852 601 142 142 218 232
312 366 332 476 467 1038 403 1685 -18 184 -51 410 -70 475 -122 413 -211 602
-411 870 -79 106 -349 387 -378 393 -8 2 -16 12 -19 23 -3 10 -10 19 -16 19
-8 0 -8 -5 -1 -17z"/>
<path d="M3061 4613 c208 -216 319 -313 494 -430 79 -53 250 -153 262 -153 2
0 48 -22 101 -49 54 -26 108 -52 122 -56 14 -4 52 -20 85 -36 33 -15 85 -36
115 -47 30 -11 98 -37 150 -57 83 -33 298 -111 370 -135 14 -5 111 -38 215
-73 383 -130 604 -199 614 -192 6 3 11 39 11 83 0 74 -2 79 -38 123 -45 56
-85 91 -176 153 -145 99 -292 157 -881 350 -557 183 -1086 378 -1325 489 -41
19 -93 42 -115 51 l-40 17 36 -38z"/>
</g>
</svg>
