<?xml version="1.0" standalone="no"?>
<!DOCTYPE svg PUBLIC "-//W3C//DTD SVG 20010904//EN"
 "http://www.w3.org/TR/2001/REC-SVG-20010904/DTD/svg10.dtd">
<svg version="1.0" xmlns="http://www.w3.org/2000/svg"
 width="300.000000pt" height="298.000000pt" viewBox="0 0 300.000000 298.000000"
 preserveAspectRatio="xMidYMid meet">

<g transform="translate(0.000000,298.000000) scale(0.100000,-0.100000)"
fill="#000000" stroke="none">
<path d="M1460 2861 c0 -5 30 -12 68 -16 37 -4 75 -9 85 -11 27 -8 20 -23 -10
-22 -16 0 -46 -8 -68 -18 -39 -19 -40 -20 -40 -72 -1 -44 2 -51 15 -46 8 3 31
8 50 11 19 2 51 10 70 17 75 28 234 -1 322 -59 21 -14 38 -21 38 -17 0 14 -58
84 -83 101 -12 8 -29 22 -37 32 -8 9 -35 25 -60 37 -41 18 -42 20 -17 21 34 1
223 -60 297 -97 l55 -27 -3 -55 c-6 -99 -7 -115 -14 -125 -3 -5 -6 -22 -6 -38
0 -22 3 -25 14 -16 12 9 14 4 14 -34 0 -64 -10 -103 -31 -126 -11 -11 -19 -29
-19 -41 0 -11 -15 -37 -33 -57 -18 -21 -44 -55 -56 -75 -12 -21 -25 -38 -28
-38 -3 0 -21 14 -40 31 -57 49 -273 143 -290 125 -3 -3 0 -8 8 -10 8 -2 43
-14 79 -25 62 -20 140 -65 204 -118 16 -13 34 -23 41 -21 7 2 72 75 145 163
72 88 161 196 197 239 l66 80 -40 35 c-93 83 -313 187 -491 232 -148 38 -402
63 -402 40z"/>
<path d="M1345 2850 c-8 -13 5 -13 25 0 13 8 13 10 -2 10 -9 0 -20 -4 -23 -10z"/>
<path d="M1280 2840 c-9 -6 -10 -10 -3 -10 6 0 15 5 18 10 8 12 4 12 -15 0z"/>
<path d="M1150 2811 c-80 -26 -217 -97 -280 -146 -61 -47 -151 -139 -169 -173
-6 -12 27 18 75 68 47 49 96 92 108 96 11 3 28 14 36 24 16 19 145 71 154 62
3 -3 6 -15 6 -26 1 -20 2 -20 14 -3 14 18 76 24 76 8 0 -8 60 -51 71 -51 11 0
-5 97 -19 113 -17 19 -16 19 13 35 19 11 19 11 -5 11 -14 0 -50 -8 -80 -18z"/>
<path d="M1142 2635 c-37 -31 -42 -31 -42 -2 -1 18 -3 16 -15 -12 -9 -19 -15
-64 -15 -107 0 -66 2 -73 18 -67 9 4 22 13 28 21 12 16 59 7 49 -9 -4 -5 7 -9
23 -9 44 0 92 58 92 110 0 35 -5 43 -42 70 -50 36 -58 37 -96 5z m84 -21 c18
-15 18 -15 -6 -10 -14 3 -33 6 -42 6 -10 0 -18 5 -18 10 0 16 44 12 66 -6z
m-35 -91 c6 -17 4 -20 -12 -16 -23 6 -32 19 -24 34 10 15 27 6 36 -18z"/>
<path d="M1631 2609 c-31 -12 -90 -77 -89 -98 0 -9 -2 -23 -6 -32 -5 -12 3
-23 31 -39 21 -13 44 -25 52 -26 8 -2 17 -7 20 -12 13 -21 138 -35 134 -15 -1
6 6 9 16 6 11 -3 31 7 52 26 18 17 37 31 42 31 5 0 6 9 2 20 -3 10 -1 28 5 40
8 16 8 20 -3 20 -8 0 -20 7 -27 15 -30 36 -113 61 -151 46 -23 -9 -23 -10 -2
-10 29 -1 53 -11 53 -23 0 -5 -16 -6 -37 -2 -21 4 -42 7 -48 6 -5 -1 -25 -4
-42 -6 -19 -3 -33 -1 -33 4 0 6 5 10 11 10 6 0 17 7 25 15 9 8 29 15 45 15 18
0 28 4 24 10 -8 12 -42 12 -74 -1z m159 -64 c7 -9 8 -15 2 -15 -5 0 -12 7 -16
15 -3 8 -4 15 -2 15 2 0 9 -7 16 -15z m-123 -75 c11 -45 4 -49 -42 -28 -31 14
-32 31 -2 51 31 22 32 22 44 -23z"/>
<path d="M2359 2452 c-55 -60 -119 -136 -210 -249 -88 -108 -149 -173 -165
-173 -6 0 -44 25 -85 55 -105 78 -208 116 -329 123 -115 5 -169 -8 -217 -52
-76 -69 -31 -143 119 -196 l53 -19 25 23 c38 36 67 48 136 56 80 10 193 -3
264 -29 31 -11 91 -43 135 -71 84 -53 108 -59 142 -35 21 14 306 357 346 415
9 13 17 34 17 46 0 26 -66 87 -138 126 l-49 28 -44 -48z"/>
<path d="M632 2365 c-17 -37 -14 -45 4 -12 9 16 14 31 11 33 -2 2 -9 -7 -15
-21z"/>
<path d="M1296 2241 c-17 -19 -17 -20 3 -30 11 -6 28 -11 38 -11 15 0 16 2 3
10 -11 7 -11 10 -2 10 10 0 10 5 2 20 -13 25 -22 25 -44 1z"/>
<path d="M1545 2250 c28 -12 55 -12 55 0 0 6 -17 10 -37 9 -31 0 -34 -2 -18
-9z"/>
<path d="M1119 2139 c-5 -3 5 -20 23 -39 28 -28 30 -31 11 -25 -18 5 -22 3
-17 -8 3 -9 16 -18 30 -21 13 -4 24 -13 24 -22 0 -12 6 -11 32 8 18 12 38 22
44 20 7 -1 13 14 16 38 3 33 0 40 -14 40 -10 0 -18 4 -18 10 0 10 -114 10
-131 -1z"/>
<path d="M570 2045 c0 -14 4 -25 9 -25 4 0 6 11 3 25 -2 14 -6 25 -8 25 -2 0
-4 -11 -4 -25z"/>
<path d="M1073 1919 c-15 -15 8 -63 33 -73 12 -5 15 -14 11 -39 -13 -70 108
-150 185 -124 20 7 44 19 53 27 16 14 16 15 -9 26 -25 10 -26 12 -10 25 10 8
40 14 75 14 31 0 54 2 51 5 -4 3 -7 11 -7 19 0 14 -19 22 -75 35 -14 3 -59 26
-100 50 -67 41 -82 46 -135 46 -34 0 -66 -5 -72 -11z m227 -119 c0 -5 -15 -10
-32 -10 -25 0 -29 3 -18 10 20 13 50 13 50 0z"/>
<path d="M1650 1856 c0 -2 37 -18 83 -35 89 -34 179 -80 160 -81 -7 0 -10 -7
-7 -15 4 -9 0 -15 -9 -15 -8 0 -22 -11 -31 -25 -9 -14 -26 -25 -37 -25 -12 0
-23 -8 -26 -20 -3 -11 -20 -25 -39 -32 -18 -6 -31 -15 -28 -20 6 -9 -53 -24
-71 -19 -5 1 -7 -1 -3 -5 5 -4 -2 -14 -14 -22 -16 -12 -23 -12 -26 -4 -3 9 -9
8 -25 -3 -12 -8 -31 -15 -42 -15 -12 0 -25 -4 -31 -8 -38 -34 -180 -41 -247
-13 -27 12 -49 16 -58 11 -17 -11 -47 14 -61 50 -5 14 -16 64 -24 112 -15 95
-42 174 -54 161 -16 -18 -89 -170 -94 -195 -8 -46 -59 -131 -80 -134 -11 -2
-45 16 -75 40 -82 62 -91 64 -41 12 98 -103 218 -162 560 -276 215 -72 313
-116 355 -160 27 -28 30 -38 30 -93 0 -74 -24 -114 -95 -155 -44 -26 -50 -27
-206 -27 l-161 0 -84 42 c-46 23 -121 71 -166 107 -46 37 -87 66 -91 66 -11 0
-41 -36 -240 -283 -84 -104 -152 -197 -152 -207 0 -33 227 -192 364 -255 142
-66 344 -105 546 -105 315 0 600 108 786 296 150 153 218 317 216 529 -1 225
-58 385 -192 540 -91 105 -173 149 -460 246 -111 38 -130 43 -130 35z"/>
<path d="M615 1795 c4 -16 11 -34 16 -39 15 -16 10 16 -7 44 l-15 25 6 -30z"/>
<path d="M2383 1424 c31 -61 66 -196 77 -294 38 -376 -140 -669 -514 -846
-177 -83 -332 -110 -594 -101 -206 6 -345 38 -509 117 -159 76 -151 48 21 -69
175 -119 318 -180 505 -215 127 -24 404 -22 534 5 199 40 371 127 508 257 183
173 248 339 236 602 -9 199 -68 355 -182 482 -25 27 -57 59 -71 71 l-26 20 15
-29z"/>
<path d="M965 1344 c122 -111 219 -160 537 -269 88 -30 166 -55 174 -55 27 0
16 51 -18 82 -47 44 -84 60 -340 147 -128 44 -271 96 -316 115 -46 20 -87 36
-90 36 -4 -1 20 -26 53 -56z"/>
</g>
</svg>
